<?xml version="1.0" encoding="utf-8"?>
<!-- Generator: Adobe Illustrator 24.0.1, SVG Export Plug-In . SVG Version: 6.00 Build 0)  -->
<svg version="1.1" id="Layer_1" xmlns="http://www.w3.org/2000/svg" xmlns:xlink="http://www.w3.org/1999/xlink" x="0px" y="0px"
	 viewBox="0 0 512 512" style="enable-background:new 0 0 512 512;" xml:space="preserve">
<g id="XMLID_2_">
	<path id="XMLID_8_" d="M188.3,82.5l81.6-81.6C265.3,0,260.6,0,256,0C121.5,0,12.1,103,0.9,234.7h32.5
		C40.8,154,90.9,86.3,160.5,53.8L188.3,82.5z M37.2,294.1c-12.1,12.9-12.1,33.3,0,45.4l135.4,135.4c12.9,12.1,33.3,12.1,45.4,0
		L474.9,218c12.1-13,12.1-33.4,0-45.5L339.4,37.1C326.5,25,306.1,25,294,37.1L37.2,294.1z M60.3,317.2L317.2,60.3l135.4,135.4
		l-256.9,256L60.3,317.2z M323.7,429.5l-81.6,81.6c4.6,0.9,9.3,0.9,13.9,0.9c134.5,0,243.9-103,255.1-234.7h-32.5
		c-7.4,80.7-57.5,148.4-127.1,180.9L323.7,429.5z"/>
</g>
</svg>
