<?xml version="1.0" encoding="utf-8"?>
<!-- Generator: Adobe Illustrator 19.0.0, SVG Export Plug-In . SVG Version: 6.00 Build 0)  -->
<svg version="1.1" id="Layer_1" xmlns="http://www.w3.org/2000/svg" xmlns:xlink="http://www.w3.org/1999/xlink" x="0px" y="0px"
	 viewBox="0 0 512 512" style="enable-background:new 0 0 512 512;" xml:space="preserve">
<g id="XMLID_2_">
	<path id="XMLID_8_" d="M351.5,53.8C421.1,86.3,471.2,154,478.6,234.7h32.5C499.9,103,390.5,0,256,0c-4.6,0-9.3,0-13.9,0.9
		l81.6,81.6L351.5,53.8z M218,37.1c-12.1-12.1-32.5-12.1-45.4,0L37.1,172.5C25,184.6,25,205,37.1,218L294,474.9
		c12.1,12.1,32.5,12.1,45.4,0l135.4-135.4c12.1-12.1,12.1-32.5,0-45.4L218,37.1z M316.3,451.7l-256.9-256L194.8,60.3l256.9,256.9
		L316.3,451.7z M160.5,458.2C90.9,425.7,40.8,358,33.4,277.3H0.9C12.1,409,121.5,512,256,512c4.6,0,9.3,0,13.9-0.9l-81.6-81.6
		L160.5,458.2z"/>
</g>
</svg>
