<?xml version="1.0" encoding="utf-8"?>
<!-- Generator: Adobe Illustrator 24.1.1, SVG Export Plug-In . SVG Version: 6.00 Build 0)  -->
<svg version="1.1" id="Layer_1" xmlns="http://www.w3.org/2000/svg" xmlns:xlink="http://www.w3.org/1999/xlink" x="0px" y="0px"
	 viewBox="0 0 512 512" style="enable-background:new 0 0 512 512;" xml:space="preserve">
<g>
	<path d="M149.3,490.7V512H512V128H128v384h21.3V490.7h21.3v-320h298.7v298.7l-320,0V490.7h21.3H149.3z M384,85.3V0h-85.3v42.7
		l42.7,0l0,42.7H384L384,85.3z M0,298.7V384h85.3v-42.7l-42.7,0l0-42.7H0L0,298.7z M21.3,256h21.3V128H0v128h42.7H21.3h21.3V128H0
		v128h42.7H21.3z M85.3,0H0v85.3h42.7l0-42.7l42.7,0V0L85.3,0z M128,21.3v21.3h128V0H128v42.7V21.3v21.3h128V0H128v42.7V21.3z"/>
</g>
</svg>
