<?xml version="1.0" encoding="utf-8"?>
<!-- Generator: Adobe Illustrator 21.0.0, SVG Export Plug-In . SVG Version: 6.00 Build 0)  -->
<svg version="1.1" id="Layer_1" xmlns="http://www.w3.org/2000/svg" xmlns:xlink="http://www.w3.org/1999/xlink" x="0px" y="0px"
	 viewBox="0 0 512 512" style="enable-background:new 0 0 512 512;" xml:space="preserve">
<g>
	<path d="M159.6,0l-29,29l37.3,37.3l-143,143C0,234.2,0,273.6,24.9,298.5l2.1,2.1l130.6,130.6c24.9,24.9,64.3,24.9,89.2,0
		l157.5-157.5l14.5-14.5L217.6,58l-16.6-16.6l-4.2-4.2L159.6,0z M196.9,95.3l163.8,163.8l-45.6,45.6h-226l-35.2-35.2
		c-8.3-8.3-8.3-22.8,0-31.1L196.9,95.3z M443.6,331.7L427,356.5c0,0-10.4,16.6-22.8,35.2c-6.2,10.4-10.3,18.7-14.5,29
		c-4.1,10.4-8.3,16.6-8.3,29c0,33.2,29,62.2,62.2,62.2s62.2-29,62.2-62.2c0-12.4-4.1-20.7-8.3-31.1c-4.1-10.4-10.3-20.7-14.5-29
		c-10.4-18.7-22.8-35.2-22.8-35.2L443.6,331.7z"/>
</g>
</svg>
