<?xml version="1.0" encoding="utf-8"?>
<!-- Generator: Adobe Illustrator 24.0.1, SVG Export Plug-In . SVG Version: 6.00 Build 0)  -->
<svg version="1.1" id="Layer_1" xmlns="http://www.w3.org/2000/svg" xmlns:xlink="http://www.w3.org/1999/xlink" x="0px" y="0px"
	 viewBox="0 0 512 512" style="enable-background:new 0 0 512 512;" xml:space="preserve">
<polygon points="500.1,244.4 413.7,157 413.7,157 413.7,157 389.7,181 449.2,239.9 272.8,239.9 272.8,62.3 331.5,120 354.7,96.9 
	354.7,96.9 354.7,96.9 268.3,11.5 256.7,0.4 245.1,11.5 157.7,97.9 157.7,97.9 157.7,97.9 181.7,121.9 240.6,62.3 240.6,239.9 
	222.7,239.9 222.7,239.9 62.7,239.9 120.4,181.2 97.3,158 11.9,244.4 0.8,256 11.9,267.6 98.3,355 122.3,331 62.7,272.1 
	222.7,272.1 222.7,272.1 240.6,272.1 240.6,288.9 240.6,288.9 240.6,448.9 181.9,391.2 158.7,414.3 245.1,499.7 256.7,510.8 
	268.3,499.7 355.7,413.3 331.7,389.3 272.8,448.9 272.8,288.9 272.8,288.9 272.8,272.1 449.3,272.1 391.6,330.8 414.7,354 
	414.7,354 414.7,354 500.1,267.6 511.2,256 "/>
</svg>
