<?xml version="1.0" encoding="utf-8"?>
<!-- Generator: Adobe Illustrator 24.1.1, SVG Export Plug-In . SVG Version: 6.00 Build 0)  -->
<svg version="1.1" id="Layer_1" xmlns="http://www.w3.org/2000/svg" xmlns:xlink="http://www.w3.org/1999/xlink" x="0px" y="0px"
	 viewBox="0 0 512 512" style="enable-background:new 0 0 512 512;" xml:space="preserve">
<g>
	<path d="M25.6,281.6h460.8c14.1,0,25.6-11.5,25.6-25.6c0-14.1-11.5-25.6-25.6-25.6H25.6C11.5,230.4,0,241.9,0,256
		C0,270.1,11.5,281.6,25.6,281.6"/>
	<path d="M128,384h147.6l-122,61l0-86.6c0-14.1-11.5-25.6-25.6-25.6s-25.6,11.5-25.6,25.6v128c0,8.9,4.6,17.1,12.1,21.8
		c7.6,4.7,16.9,5.1,24.9,1.1l256-128c10.6-5.3,16.2-17.2,13.5-28.8c-2.7-11.6-13-19.7-24.9-19.7H128c-14.1,0-25.6,11.5-25.6,25.6
		C102.4,372.5,113.9,384,128,384L128,384z"/>
	<path d="M128,179.2h256c11.9,0,22.2-8.1,24.9-19.7c2.7-11.6-2.8-23.5-13.5-28.8l-256-128c-8-4-17.3-3.6-24.9,1.1
		c-7.6,4.7-12.1,12.9-12.1,21.8v128C102.4,167.7,113.9,179.2,128,179.2c14.1,0,25.6-11.5,25.6-25.6V67l122,61L128,128
		c-14.1,0-25.6,11.5-25.6,25.6C102.4,167.7,113.9,179.2,128,179.2L128,179.2z"/>
</g>
</svg>
