<?xml version="1.0" encoding="utf-8"?>
<!-- Generator: Adobe Illustrator 19.0.0, SVG Export Plug-In . SVG Version: 6.00 Build 0)  -->
<svg version="1.1" id="Layer_1" xmlns="http://www.w3.org/2000/svg" xmlns:xlink="http://www.w3.org/1999/xlink" x="0px" y="0px"
	 viewBox="0 0 512 512" style="enable-background:new 0 0 512 512;" xml:space="preserve">
<g id="XMLID_1_">
	<polygon id="XMLID_3_" points="8,147.9 0,147.9 0,487.2 179.8,308.3 0,129.3 0,147.9 8,147.9 2.7,154.1 156.8,308.3 16.8,448.2 
		16.8,147.9 8,147.9 2.7,154.1 	"/>
	<polygon id="XMLID_4_" points="486.3,462.4 512,487.2 512,451.8 495.2,451.8 495.2,467.7 504,467.7 509.3,462.4 497.8,450.9 	"/>
	<path id="XMLID_11_" d="M512,195.8v-23.9h-16.8v23.9H512z M512,243.6v-31.9h-16.8v31.9H512z M512,292.3v-31.9h-16.8v31.9H512z
		 M512,340.2v-31.9h-16.8v31.9H512z M512,388v-31.9h-16.8V388H512z M512,435.8v-31.9h-16.8v31.9H512z"/>
	<polygon id="XMLID_12_" points="512,163.9 512,129.3 486.3,154.1 497.8,164.8 509.3,154.1 504,147.9 495.2,147.9 495.2,163.9 	"/>
	<path id="XMLID_17_" d="M380.9,259.5l-21.3,21.3l11.5,10.6l21.3-21.3L380.9,259.5z M412.8,227.7l-21.3,21.3l11.5,11.5l21.3-21.3
		L412.8,227.7z M444.7,195.8L423.4,217l11.5,11.5l21.3-21.3L444.7,195.8z M475.7,164.8l-20.4,20.4l11.5,11.5l21.3-21.3L475.7,164.8z
		"/>
	<polygon id="XMLID_18_" points="349.9,290.5 332.2,308.3 349.9,325.1 360.5,313.6 355.2,308.3 360.5,302.1 	"/>
	<path id="XMLID_23_" d="M455.3,430.5l21.3,21.3l11.5-11.5L466.8,419L455.3,430.5z M423.4,398.6l21.3,21.3l11.5-11.5l-21.3-21.3
		L423.4,398.6z M391.5,366.7l21.3,21.3l11.5-11.5L403,355.2L391.5,366.7z M359.6,335.7l21.3,21.3l11.5-11.5l-21.3-21.3L359.6,335.7z
		"/>
	<polyline id="XMLID_24_" points="264,499.6 264,483.7 248,483.7 248,499.6 	"/>
	<path id="XMLID_32_" d="M264,179.8v-31.9H248v31.9H264z M264,227.7v-31.9H248v31.9H264z M264,276.4v-31.9H248v31.9H264z M264,324.2
		v-31.9H248v31.9H264z M264,372v-31.9H248V372H264z M264,419.9V388H248v31.9H264z M264,467.7v-31.9H248v31.9H264z"/>
	<polyline id="XMLID_33_" points="264,132 264,116 248,116 248,132 	"/>
	<polygon id="XMLID_34_" points="367.6,124 455.3,124 463.3,116 463.3,28.3 447.3,28.3 447.3,108.1 367.6,108.1 	"/>
	<path id="XMLID_35_" d="M462.4,111.6C415.4,46.1,341,12.4,256,12.4S96.6,46.1,49.6,111.6l13.3,8.9C106.3,60.2,175.4,28.3,256,28.3
		c81.5,0,149.7,31.9,193.1,92.1L462.4,111.6L462.4,111.6z"/>
</g>
</svg>
