<?xml version="1.0" encoding="utf-8"?>
<!-- Generator: Adobe Illustrator 24.1.1, SVG Export Plug-In . SVG Version: 6.00 Build 0)  -->
<svg version="1.1" id="Layer_1" xmlns="http://www.w3.org/2000/svg" xmlns:xlink="http://www.w3.org/1999/xlink" x="0px" y="0px"
	 viewBox="0 0 512 512" style="enable-background:new 0 0 512 512;" xml:space="preserve">
<g>
	<path d="M230.4,25.6v460.8c0,14.1,11.5,25.6,25.6,25.6c14.1,0,25.6-11.5,25.6-25.6V25.6C281.6,11.5,270.1,0,256,0
		C241.9,0,230.4,11.5,230.4,25.6"/>
	<path d="M332.8,128v256c0,6.7,2.7,13.3,7.5,18.1c4.8,4.8,11.4,7.5,18.1,7.5h128c8.9,0,17.1-4.6,21.8-12.1c4.7-7.6,5.1-17,1.1-24.9
		l-128-256c-6.3-12.6-21.7-17.8-34.3-11.4c-12.6,6.3-17.8,21.7-11.4,34.3L445,358.4h-61V128c0-14.1-11.5-25.6-25.6-25.6
		C344.3,102.4,332.8,113.9,332.8,128L332.8,128z"/>
	<path d="M128,128v230.4H67l109.5-218.9c6.3-12.6,1.2-28-11.4-34.3c-12.6-6.3-28-1.2-34.3,11.4l-128,256c-4,8-3.6,17.3,1.1,24.9
		c4.7,7.6,12.9,12.1,21.8,12.1h128c6.7,0,13.3-2.7,18.1-7.5c4.8-4.8,7.5-11.4,7.5-18.1V128c0-14.1-11.5-25.6-25.6-25.6
		C139.5,102.4,128,113.9,128,128z"/>
</g>
</svg>
