<?xml version="1.0" encoding="utf-8"?>
<!-- Generator: Adobe Illustrator 24.1.1, SVG Export Plug-In . SVG Version: 6.00 Build 0)  -->
<svg version="1.1" id="Layer_1" xmlns="http://www.w3.org/2000/svg" xmlns:xlink="http://www.w3.org/1999/xlink" x="0px" y="0px"
	 viewBox="0 0 512 512" style="enable-background:new 0 0 512 512;" xml:space="preserve">
<style type="text/css">
	.st0{fill:#231F20;}
</style>
<g>
	<path class="st0" d="M7.4,122.6l241.4,131.2c4.2,2.3,9.3,2.3,13.6,0l241.4-131.2c6.2-3,8.7-10.5,5.6-16.7c-1.4-2.9-4-5.2-7.1-6.3
		L261,1.1c-3.4-1.4-7.3-1.4-10.8,0L8.8,99.7c-6.5,2.3-9.9,9.4-7.7,15.9C2.2,118.6,4.5,121.2,7.4,122.6z"/>
	<path class="st0" d="M502.5,218.1L450.6,196L262.4,298.3c-4.3,2.3-9.4,2.3-13.6,0L60.7,196L8.8,218.1c-6.7,3.5-9.2,11.7-5.7,18.4
		l5.7,5.7l241.4,138.9c4.2,2.5,9.4,2.5,13.6,0l241.4-138.9c6.3-4.2,7.9-12.6,3.8-18.9C507.5,221,505.2,219.1,502.5,218.1z"/>
	<path class="st0" d="M502.5,344l-44.2-19.3L262.4,431.2c-4.3,2.3-9.4,2.3-13.6,0L53,324.7L8.8,344c-6.8,3.5-9.5,11.9-5.9,18.7
		l5.9,5.9l241.4,141.7c4.2,2.3,9.4,2.3,13.6,0l241.4-141.7c6.4-4.2,8.2-12.8,4-19.2C507.7,346.9,505.3,345,502.5,344z"/>
</g>
</svg>
