<?xml version="1.0" encoding="utf-8"?>
<!-- Generator: Adobe Illustrator 24.1.1, SVG Export Plug-In . SVG Version: 6.00 Build 0)  -->
<svg version="1.1" id="Layer_1" xmlns="http://www.w3.org/2000/svg" xmlns:xlink="http://www.w3.org/1999/xlink" x="0px" y="0px"
	 viewBox="0 0 512 512" style="enable-background:new 0 0 512 512;" xml:space="preserve">
<style type="text/css">
	.st0{fill:#231F20;}
</style>
<g>
	<path class="st0" d="M512,237.4c-0.7-10.8-7.4-20.3-17.3-24.5l-61.1-26.2l64.3-37c9.3-5.3,14.8-15.5,14.2-26.2
		c-0.7-10.8-7.4-20.3-17.3-24.5l-227.5-97c-7.1-3-15.1-3-22.2,0l-227.5,97c-10,4.2-16.7,13.7-17.3,24.5
		c-0.6,10.7,4.9,20.8,14.2,26.2l64.3,37L17.4,213c-10,4.2-16.7,13.7-17.3,24.5c-0.6,10.7,4.9,20.8,14.2,26.2l64.3,37l-61.1,26.2
		c-10,4.2-16.7,13.7-17.3,24.5C-0.5,361.9,5,372,14.3,377.4l227.5,130.8c8.8,5.1,19.6,5.1,28.4,0l227.5-130.8
		c9.3-5.3,14.8-15.5,14.2-26.2c-0.7-10.8-7.4-20.3-17.3-24.5l-61.1-26.2l64.3-37C507,258.3,512.5,248.2,512,237.4z M256,59.4
		l163.8,69.7L256,223.2L92.2,129.1L256,59.4z M241.8,280.7c8.8,5.1,19.6,5.1,28.4,0l101.5-56.9l48.1,20.5L256,337L92.2,242.8
		l48.1-20.5L241.8,280.7z M419.8,356.6L256,450.7L92.2,356.6l48.1-20.5l101.5,58.3c8.8,5.1,19.6,5.1,28.4,0l101.5-58.3L419.8,356.6z
		"/>
</g>
</svg>
