<?xml version="1.0" encoding="utf-8"?>
<!-- Generator: Adobe Illustrator 21.0.0, SVG Export Plug-In . SVG Version: 6.00 Build 0)  -->
<svg version="1.1" id="Layer_1" xmlns="http://www.w3.org/2000/svg" xmlns:xlink="http://www.w3.org/1999/xlink" x="0px" y="0px"
	 viewBox="0 0 512 512" style="enable-background:new 0 0 512 512;" xml:space="preserve">
<path d="M504.9,363.8c-2.7-3.5-5.9-6.4-9.3-9c-3.5-2.5-7.2-4.7-11.3-6.5l0,0l-60-28.8l60-27.4h-0.1c3.6-1.6,7-3.5,10.2-5.7
	c4.7-3.2,8.9-7.2,12.3-12.2c1.6-2.5,3-5.3,4-8.4c1-3,1.5-6.3,1.5-9.6c0-4.4-0.9-8.7-2.6-12.5c-1.2-2.9-2.8-5.5-4.6-7.8
	c-2.7-3.5-5.9-6.4-9.3-9c-3.5-2.5-7.2-4.6-11.3-6.5h-0.1L422,192.5l62.4-28.5c3.6-1.7,7-3.5,10.1-5.7c4.7-3.3,8.9-7.2,12.1-12.2
	c1.6-2.5,3-5.3,3.9-8.3c1-3,1.5-6.3,1.5-9.5c0-4.4-0.9-8.7-2.6-12.5c-1.2-2.9-2.8-5.5-4.6-7.8c-2.7-3.5-5.9-6.4-9.3-9
	c-3.5-2.5-7.2-4.7-11.3-6.5l-8.2,17.8l-8.1,17.9c0,0,0,0,0,0l-182.1,83.1c-3.3,1.5-7.9,2.9-13.1,3.9c-5.2,0.9-10.9,1.5-16.7,1.5
	c-5.7,0-11.5-0.5-16.7-1.5c-5.2-0.9-9.7-2.3-13.1-3.9l-182-83.1c0,0,0,0,0,0l183.6-83.8c3.1-1.4,7.4-2.8,12.3-3.7
	c4.9-0.9,10.3-1.4,15.7-1.4c5.4,0,10.9,0.5,15.7,1.4c4.9,0.9,9.2,2.2,12.3,3.7l183.8,83.8l8.4-17.9l8.2-17.9L300.4,8.6
	c-6.8-3.1-14.1-5.2-21.5-6.6c-7.5-1.4-15.2-2-22.9-2s-15.4,0.7-22.9,2c-7.5,1.4-14.7,3.5-21.5,6.6L27.8,92.4
	c-3.6,1.7-7,3.5-10.1,5.7c-4.7,3.2-8.9,7.2-12.2,12.2c-1.6,2.5-3,5.3-4,8.4c-1,3-1.5,6.3-1.5,9.6c0,4.4,0.9,8.7,2.6,12.5
	c1.2,2.9,2.8,5.5,4.6,7.8c2.7,3.5,5.9,6.4,9.3,9c3.5,2.5,7.2,4.7,11.3,6.5L90,192.4l-62.2,28h-0.1c-3.6,1.7-7,3.5-10.1,5.7
	c-4.7,3.3-8.9,7.2-12.2,12.2c-1.6,2.5-3,5.3-4,8.4c-1,3-1.5,6.3-1.5,9.6c0,4.4,0.9,8.7,2.6,12.5c1.2,2.9,2.8,5.5,4.6,7.8
	c2.7,3.5,5.9,6.4,9.3,9c3.5,2.5,7.2,4.7,11.3,6.5L90,320.5l-62.1,27.8h-0.1c-3.6,1.7-7,3.5-10.1,5.7c-4.7,3.3-8.9,7.2-12.2,12.2
	c-1.6,2.5-3,5.3-4,8.4c-1,3-1.5,6.3-1.5,9.6c0,4.4,0.9,8.7,2.6,12.5c1.2,2.9,2.8,5.5,4.6,7.8c2.7,3.5,5.9,6.4,9.3,9
	c3.5,2.5,7.2,4.7,11.3,6.5L210,503.1c7.1,3.2,14.5,5.3,22.3,6.8c7.7,1.4,15.8,2.1,23.8,2.1s16-0.7,23.8-2.1
	c7.7-1.4,15.2-3.6,22.3-6.8L484.3,420c3.6-1.7,7-3.5,10.1-5.7c4.7-3.3,8.9-7.2,12.2-12.2c1.6-2.5,3-5.3,4-8.4c1-3,1.5-6.3,1.5-9.6
	c0-4.4-0.9-8.7-2.6-12.5C508.3,368.7,506.7,366.1,504.9,363.8z M210,247.1c7.1,3.2,14.6,5.4,22.3,6.8c7.8,1.4,15.8,2.1,23.8,2.1
	s16-0.7,23.8-2.1c7.8-1.4,15.3-3.6,22.3-6.8l72.1-32.9l93.5,41.9l-182,83c-3.3,1.5-7.9,2.9-13.1,3.9c-5.2,0.9-10.9,1.5-16.7,1.5
	c-5.7,0-11.5-0.5-16.7-1.5c-5.2-0.9-9.7-2.3-13.1-3.9L44.1,256.2l93.7-42L210,247.1z M285.9,467.2c-3.3,1.5-7.9,2.9-13.1,3.9
	c-5.2,0.9-10.9,1.5-16.7,1.5c-5.7,0-11.5-0.5-16.7-1.5c-5.2-0.9-9.7-2.3-13.1-3.9l-182.1-83l93.5-42l72.2,32.9
	c7.1,3.2,14.6,5.4,22.3,6.8c7.7,1.4,15.8,2.1,23.8,2.1s16-0.7,23.8-2.1c7.8-1.4,15.3-3.6,22.3-6.8l75.5-34.4l90,43.2l0.3,0.2
	L285.9,467.2z"/>
</svg>
