<?xml version="1.0" encoding="utf-8"?>
<!-- Generator: Adobe Illustrator 19.0.0, SVG Export Plug-In . SVG Version: 6.00 Build 0)  -->
<svg version="1.1" id="Layer_1" xmlns="http://www.w3.org/2000/svg" xmlns:xlink="http://www.w3.org/1999/xlink" x="0px" y="0px"
	 viewBox="0 0 512 512" style="enable-background:new 0 0 512 512;" xml:space="preserve">
<g id="XMLID_2_">
	<path id="XMLID_18_" d="M465.5,325.8H512v46.5h-46.5V325.8z M465.5,232.7H512v46.5h-46.5V232.7z M512,418.9h-46.5v46.5
		C488.7,465.5,512,442.2,512,418.9z M279.3,46.5h46.5v46.5h-46.5V46.5z M465.5,139.6H512v46.5h-46.5V139.6z M465.5,46.5v46.5H512
		C512,69.8,488.7,46.5,465.5,46.5z M0,139.6h46.5v46.5H0V139.6z M372.4,46.5h46.5v46.5h-46.5V46.5z M372.4,418.9h46.5v46.5h-46.5
		V418.9z M46.5,46.5C23.3,46.5,0,69.8,0,93.1h46.5V46.5z M186.2,46.5h46.5v46.5h-46.5V46.5z M93.1,46.5h46.5v46.5H93.1V46.5z
		 M0,232.7v186.2c0,26.1,20.5,46.5,46.5,46.5h279.3V232.7H0z M46.5,418.9l58.6-74.5l41.9,50.3l58.6-75.4l74.5,99.6H46.5z"/>
</g>
</svg>
