<?xml version="1.0" encoding="utf-8"?>
<!-- Generator: Adobe Illustrator 24.1.1, SVG Export Plug-In . SVG Version: 6.00 Build 0)  -->
<svg version="1.1" id="Layer_1" xmlns="http://www.w3.org/2000/svg" xmlns:xlink="http://www.w3.org/1999/xlink" x="0px" y="0px"
	 viewBox="0 0 512 512" style="enable-background:new 0 0 512 512;" xml:space="preserve">
<g>
	<path d="M21.3,21.3v21.3H64V64H42.7l0-42.7H21.3v21.3V21.3H0v85.3h106.7V0H0v21.3H21.3z M426.7,21.3v21.3h42.7V64H448l0-42.7H426.7
		v21.3V21.3h-21.3v85.3H512V0H405.3v21.3H426.7z M85.3,64h341.3V21.3H85.3V64z M85.3,490.7h341.3V448H85.3V490.7z M21.3,426.7V448
		H64v21.3H42.7l0-42.7H21.3V448V426.7H0V512h106.7V405.3H0v21.3H21.3z M426.7,426.7V448h42.7v21.3H448l0-42.7H426.7V448V426.7h-21.3
		V512H512V405.3H405.3v21.3H426.7z M21.3,85.3v341.3H64V85.3H21.3z M448,85.3v341.3h42.7V85.3H448z M149.3,149.3v21.3h128V256H170.7
		l0-106.7H149.3v21.3V149.3H128v149.3h192V128H128v21.3H149.3z M341.3,213.3v128H234.7V320H192v64h192V213.3H341.3L341.3,213.3z"/>
</g>
</svg>
