<?xml version="1.0" encoding="utf-8"?>
<!-- Generator: Adobe Illustrator 24.1.1, SVG Export Plug-In . SVG Version: 6.00 Build 0)  -->
<svg version="1.1" id="Layer_1" xmlns="http://www.w3.org/2000/svg" xmlns:xlink="http://www.w3.org/1999/xlink" x="0px" y="0px"
	 viewBox="0 0 512 512" style="enable-background:new 0 0 512 512;" xml:space="preserve">
<g>
	<path d="M307.2,128H119.5v162.1h85.3V384h187.7V221.9h-85.3V128z M153.6,256v-93.9h119.5V256H153.6z M358.4,256v93.9H238.9v-59.7
		h68.3V256H358.4z"/>
	<path d="M512,102.4V0H409.6v34.1H102.4V0H0v102.4h34.1v307.2H0V512h102.4v-34.1h307.2V512H512V409.6h-34.1V102.4H512z M443.7,34.1
		h34.1v34.1h-34.1V34.1z M34.1,34.1h34.1v34.1H34.1V34.1z M68.3,477.9H34.1v-34.1h34.1V477.9z M477.9,477.9h-34.1v-34.1h34.1V477.9z
		 M443.7,409.6h-34.1v34.1H102.4v-34.1H68.3V102.4h34.1V68.3h307.2v34.1h34.1V409.6z"/>
</g>
</svg>
