<?xml version="1.0" encoding="utf-8"?>
<!-- Generator: Adobe Illustrator 24.1.1, SVG Export Plug-In . SVG Version: 6.00 Build 0)  -->
<svg version="1.1" id="Layer_1" xmlns="http://www.w3.org/2000/svg" xmlns:xlink="http://www.w3.org/1999/xlink" x="0px" y="0px"
	 viewBox="0 0 512 512" style="enable-background:new 0 0 512 512;" xml:space="preserve">
<g>
	<path d="M512,230.4V128H409.6v34.1h-76.8v-59.7h34.1V0H264.5v34.1H102.4V0H0v102.4h34.1v162.1H0v102.4h102.4v-34.1h76.8v76.8h-34.1
		V512h102.4v-34.1h162.1V512H512V409.6h-34.1V230.4H512z M443.7,162.1h34.1v34.1h-34.1V162.1z M298.7,34.1h34.1v34.1h-34.1V34.1z
		 M34.1,34.1h34.1v34.1H34.1V34.1z M68.3,332.8H34.1v-34.1h34.1V332.8z M102.4,298.7v-34.1H68.3V102.4h34.1V68.3h162.1v34.1h34.1
		v162.1h-34.1v34.1H102.4z M332.8,298.7v34.1h-34.1v-34.1H332.8z M213.3,477.9h-34.1v-34.1h34.1V477.9z M477.9,477.9h-34.1v-34.1
		h34.1V477.9z M443.7,409.6h-34.1v34.1H247.5v-34.1h-34.1v-76.8h51.2v34.1h102.4V264.5h-34.1v-68.3h76.8v34.1h34.1V409.6z"/>
</g>
</svg>
