<?xml version="1.0" encoding="utf-8"?>
<!-- Generator: Adobe Illustrator 24.0.1, SVG Export Plug-In . SVG Version: 6.00 Build 0)  -->
<svg version="1.1" id="Layer_1" xmlns="http://www.w3.org/2000/svg" xmlns:xlink="http://www.w3.org/1999/xlink" x="0px" y="0px"
	 viewBox="0 0 322 467.8" style="enable-background:new 0 0 322 467.8;" xml:space="preserve">
<style type="text/css">
	.st0{fill:#323232;}
	.st1{fill:#461496;}
	.st2{fill:#C8C8C8;}
	.st3{fill:#AAAAAA;}
	.st4{fill:#8C8C8C;}
	.st5{fill:none;stroke:#000000;stroke-width:40;stroke-linecap:round;stroke-linejoin:round;stroke-miterlimit:10;}
	.st6{fill:none;stroke:#000000;stroke-width:20;stroke-linecap:round;stroke-linejoin:round;stroke-miterlimit:10;}
</style>
<title>panel-finishing</title>
<polygon class="st0" points="322,467.8 321.9,467.7 321.9,467.8 "/>
<path class="st1" d="M321.9,328.4V49.5C321.8,22.2,299.7,0.1,272.4,0H49.5C22.2,0.1,0.1,22.2,0,49.5v418.2l161-74.3l160.9,74.2
	V328.4z"/>
<path class="st2" d="M272.4,0H49.5C22.2,0.1,0.1,22.2,0,49.5v39.7h321.9V49.5C321.8,22.2,299.7,0.1,272.4,0z"/>
<rect y="86.9" class="st3" width="321.9" height="125"/>
<rect y="210.9" class="st4" width="321.9" height="117.6"/>
<polyline class="st5" points="253,68.9 288,115.9 371,33.9 "/>
<path class="st6" d="M111,124.9c46.4-15.1,81.8,29.6,81,61c-1,35.3-29,69-81,57.4c-28.9-6.4-33.1-23.7-71-28.4
	c-24-3-51.1,1-72.5,26.6c-16.6,19.8-20.9,53.5-2.1,77.6C-20,337.8,6.6,348.6,31,341.4c17.3-5.1,27.2-17.5,30.9-22.6"/>
</svg>
