<?xml version="1.0" encoding="utf-8"?>
<!-- Generator: Adobe Illustrator 24.0.1, SVG Export Plug-In . SVG Version: 6.00 Build 0)  -->
<svg version="1.1" id="Layer_1" xmlns="http://www.w3.org/2000/svg" xmlns:xlink="http://www.w3.org/1999/xlink" x="0px" y="0px"
	 viewBox="0 0 512 512" style="enable-background:new 0 0 512 512;" xml:space="preserve">
<style type="text/css">
	.st0{fill:#969696;}
	.st1{fill:#461496;}
</style>
<g>
	<path class="st0" d="M499.1,118.8L266.4,2.5c-6.5-3.3-14.3-3.3-20.8,0l0,0L12.9,118.8C5,122.8,0,130.8,0,139.6s5,16.9,12.9,20.8
		l232.7,116.4c6.5,3.3,14.3,3.3,20.8,0l232.7-116.4c7.9-4,12.9-12,12.9-20.8C512,130.8,507,122.7,499.1,118.8z M256,230L75.3,139.6
		L256,49.3l180.7,90.3L256,230z"/>
	<path class="st1" d="M12.9,393.2l232.7,116.4c6.5,3.3,14.3,3.3,20.8,0l232.7-116.4c11.5-5.7,16.2-19.7,10.4-31.2
		c-5.7-11.5-19.7-16.2-31.2-10.4L256,462.7L33.7,351.5c-11.5-5.7-25.5-1.1-31.2,10.4C-3.3,373.5,1.4,387.4,12.9,393.2L12.9,393.2z"
		/>
	<path class="st0" d="M12.9,276.8l232.7,116.4c6.5,3.3,14.3,3.3,20.8,0l232.7-116.4c11.5-5.7,16.2-19.7,10.4-31.2
		c-5.7-11.5-19.7-16.2-31.2-10.4L256,346.3L33.7,235.2c-11.5-5.7-25.5-1.1-31.2,10.4C-3.3,257.1,1.4,271.1,12.9,276.8L12.9,276.8z"
		/>
</g>
</svg>
