<?xml version="1.0" encoding="utf-8"?>
<!-- Generator: Adobe Illustrator 24.0.1, SVG Export Plug-In . SVG Version: 6.00 Build 0)  -->
<svg version="1.1" id="Icons" xmlns="http://www.w3.org/2000/svg" xmlns:xlink="http://www.w3.org/1999/xlink" x="0px" y="0px"
	 viewBox="0 0 32 32" style="enable-background:new 0 0 32 32;" xml:space="preserve">
<style type="text/css">
	.st0{fill:none;stroke:#000000;stroke-width:2;stroke-linecap:round;stroke-linejoin:round;stroke-miterlimit:10;}
	.st1{fill:none;stroke:#461496;stroke-width:2;stroke-linecap:round;stroke-linejoin:round;stroke-miterlimit:10;}
</style>
<path class="st0" d="M20.6,13.2v-0.4c0-2.4-1.8-4.6-4.2-4.8c-2.8-0.3-5.1,1.9-5.1,4.6v0.6c0,1.3-0.5,2.5-1.4,3.5
	c-1.6,1.8-2.3,4.2-1.9,6.8c0.6,3.1,3.1,5.7,6.3,6.3c5.1,1,9.6-2.9,9.6-7.8c0-2-0.8-3.9-2-5.3C21.2,15.8,20.6,14.5,20.6,13.2z"/>
<path class="st0" d="M18,2L18,2c-1.3,1.3-2,3-2,4.8V8"/>
<path class="st1" d="M27,5c0,0-1.8,2-4,2s-4-2-4-2s1.8-2,4-2S27,5,27,5z"/>
</svg>
