<?xml version="1.0" encoding="utf-8"?>
<!-- Generator: Adobe Illustrator 24.0.1, SVG Export Plug-In . SVG Version: 6.00 Build 0)  -->
<svg version="1.1" id="Layer_1" xmlns="http://www.w3.org/2000/svg" xmlns:xlink="http://www.w3.org/1999/xlink" x="0px" y="0px"
	 viewBox="0 0 512 512" style="enable-background:new 0 0 512 512;" xml:space="preserve">
<style type="text/css">
	.st0{fill-rule:evenodd;clip-rule:evenodd;}
	.st1{fill-rule:evenodd;clip-rule:evenodd;fill:#969696;}
	.st2{fill-rule:evenodd;clip-rule:evenodd;fill:#461496;}
</style>
<g>
	<path class="st0" d="M109.7,365.7H36.6C16.4,365.7,0,382.1,0,402.3v73.1C0,495.6,16.4,512,36.6,512h73.1
		c20.2,0,36.6-16.4,36.6-36.6v-73.1C146.3,382.1,129.9,365.7,109.7,365.7z M109.7,475.4H36.6v-73.1h73.1V475.4z"/>
	<path class="st0" d="M109.7,182.9H36.6C16.4,182.9,0,199.2,0,219.4v73.1c0,20.2,16.4,36.6,36.6,36.6h73.1
		c20.2,0,36.6-16.3,36.6-36.5v-73.1C146.3,199.3,129.9,182.9,109.7,182.9z M109.7,292.5H36.6v-73.1h73.1V292.5z"/>
	<path class="st1" d="M109.7,0H36.6C16.4,0,0,16.4,0,36.6v73.1c0,20.2,16.4,36.6,36.6,36.6h73.1c20.2,0,36.6-16.4,36.6-36.6V36.6
		C146.3,16.4,129.9,0,109.7,0z M109.7,109.7H36.6V36.6h73.1V109.7z"/>
	<path class="st1" d="M292.5,365.7h-73.1c-20.2,0-36.6,16.4-36.6,36.6v73.1c0,20.2,16.4,36.6,36.6,36.6h73.1
		c20.3,0,36.6-16.4,36.6-36.6v-73.1C329.1,382.1,312.7,365.7,292.5,365.7z M292.6,475.4h-73.1v-73.1h73.1V475.4z"/>
	<path class="st0" d="M292.5,182.9h-73.1c-20.2,0-36.6,16.4-36.6,36.6v73.1c0,20.2,16.4,36.6,36.6,36.6h73.1
		c20.3-0.1,36.6-16.4,36.6-36.6v-73.1C329.1,199.3,312.7,182.9,292.5,182.9z M292.6,292.5h-73.1v-73.1h73.1V292.5z"/>
	<path class="st0" d="M292.5,0h-73.1c-20.2,0-36.6,16.4-36.6,36.6v73.1c0,20.2,16.4,36.6,36.6,36.6h73.1c20.3,0,36.6-16.4,36.6-36.6
		V36.6C329.1,16.4,312.7,0,292.5,0z M292.6,109.7h-73.1V36.6h73.1V109.7z"/>
	<path class="st0" d="M475.4,0h-73.1c-20.2,0-36.6,16.4-36.6,36.6v73.1c0,20.2,16.4,36.6,36.6,36.6h73.1c20.2,0,36.6-16.4,36.6-36.6
		V36.6C512,16.4,495.6,0,475.4,0z M475.4,109.7h-73.1V36.6h73.1V109.7z"/>
	<path class="st2" d="M475.4,182.8h-73.1c-20.2,0-36.6,16.4-36.6,36.6v73.1c0,20.2,16.4,36.6,36.6,36.6h73.1
		c20.2,0,36.6-16.4,36.6-36.6v-73.1C512,199.2,495.6,182.8,475.4,182.8z M475.4,292.5h-73.1v-73.1h73.1V292.5z"/>
	<path class="st0" d="M475.4,365.7h-73.1v0c-20.2,0-36.6,16.4-36.6,36.6v73.1c0,20.2,16.4,36.6,36.6,36.6h73.1
		c20.2,0,36.6-16.4,36.6-36.6v-73.1C512,382.1,495.6,365.7,475.4,365.7z M475.4,475.4h-73.1v-73.1h73.1V475.4z"/>
</g>
</svg>
