<?xml version="1.0" encoding="utf-8"?>
<!-- Generator: Adobe Illustrator 24.0.1, SVG Export Plug-In . SVG Version: 6.00 Build 0)  -->
<svg version="1.1" id="Layer_1" xmlns="http://www.w3.org/2000/svg" xmlns:xlink="http://www.w3.org/1999/xlink" x="0px" y="0px"
	 viewBox="0 0 16 16" style="enable-background:new 0 0 16 16;" xml:space="preserve">
<style type="text/css">
	.st0{fill:#461496;}
</style>
<g id="Guide">
</g>
<g id="Layer_2_1_">
	<g>
		<path d="M6,6c0-0.9-0.6-1.7-1.5-1.9V2.5C4.5,2.2,4.3,2,4,2S3.5,2.2,3.5,2.5v1.6C2.6,4.3,2,5.1,2,6s0.6,1.7,1.5,1.9v5.6
			C3.5,13.8,3.7,14,4,14s0.5-0.2,0.5-0.5V7.9C5.4,7.7,6,6.9,6,6z M4,7C3.5,7,3,6.5,3,6s0.5-1,1-1s1,0.4,1,1S4.6,7,4,7z"/>
		<path class="st0" d="M8.5,9.1V2.5C8.5,2.2,8.3,2,8,2S7.5,2.2,7.5,2.5v6.6C6.6,9.3,6,10.1,6,11s0.6,1.7,1.5,1.9v0.6
			C7.5,13.8,7.7,14,8,14c0.3,0,0.5-0.2,0.5-0.5v-0.6c0.9-0.2,1.5-1,1.5-1.9S9.4,9.3,8.5,9.1z M8,12c-0.6,0-1-0.4-1-1s0.4-1,1-1
			s1,0.4,1,1S8.6,12,8,12z"/>
		<path d="M14,5c0-0.9-0.6-1.7-1.5-1.9V2.5C12.5,2.2,12.3,2,12,2s-0.5,0.2-0.5,0.5v0.6C10.6,3.3,10,4.1,10,5s0.6,1.7,1.5,1.9v6.6
			c0,0.3,0.2,0.5,0.5,0.5s0.5-0.2,0.5-0.5V6.9C13.4,6.7,14,5.9,14,5z M12,6c-0.6,0-1-0.4-1-1s0.4-1,1-1s1,0.4,1,1S12.6,6,12,6z"/>
	</g>
</g>
</svg>
