<?xml version="1.0" encoding="utf-8"?>
<!-- Generator: Adobe Illustrator 24.0.1, SVG Export Plug-In . SVG Version: 6.00 Build 0)  -->
<svg version="1.1" id="Layer_1" xmlns="http://www.w3.org/2000/svg" xmlns:xlink="http://www.w3.org/1999/xlink" x="0px" y="0px"
	 viewBox="0 0 512 512" style="enable-background:new 0 0 512 512;" xml:space="preserve">
<style type="text/css">
	.st0{fill:#461496;}
</style>
<g>
	<path class="st0" d="M229.7,139.7l-86.3,218.7h48.2l16.6-42.1h95.6l16.6,42.1h48.2l-86.3-218.7H229.7z M225.9,271.5l30.1-76.3
		l30.1,76.3H225.9z"/>
	<path d="M512,119.5V0H392.5v42.7h-273V0H0v119.5h42.7v273.1H0V512h119.5v-42.7h273.1V512H512V392.5h-42.7v-273H512z M426.7,34.1
		h51.2v51.2h-51.2V34.1z M34.1,85.3V34.1h51.2v51.2H34.1z M85.3,477.9H34.1v-51.2h51.2V477.9z M477.9,426.7v51.2h-51.2v-51.2H477.9z
		 M435.2,358.4v34.1h-42.7v42.7h-273v-42.7H76.8v-273h42.7V76.8h273.1v42.7h42.7v238.9H435.2z"/>
</g>
</svg>
