<?xml version="1.0" encoding="utf-8"?>
<!-- Generator: Adobe Illustrator 24.1.1, SVG Export Plug-In . SVG Version: 6.00 Build 0)  -->
<svg version="1.1" id="Layer_1" xmlns="http://www.w3.org/2000/svg" xmlns:xlink="http://www.w3.org/1999/xlink" x="0px" y="0px"
	 viewBox="0 0 512 512" style="enable-background:new 0 0 512 512;" xml:space="preserve">
<g>
	<path d="M256,512C114.6,512,0,397.4,0,256S114.6,0,256,0s256,114.6,256,256S397.4,512,256,512z M256,460.8
		c113.1,0,204.8-91.7,204.8-204.8S369.1,51.2,256,51.2S51.2,142.9,51.2,256S142.9,460.8,256,460.8z M281.6,230.4h51.2
		c14.1,0,25.6,11.5,25.6,25.6c0,14.1-11.5,25.6-25.6,25.6h-51.2v51.2c0,14.1-11.5,25.6-25.6,25.6c-14.1,0-25.6-11.5-25.6-25.6v-51.2
		h-51.2c-14.1,0-25.6-11.5-25.6-25.6c0-14.1,11.5-25.6,25.6-25.6h51.2v-51.2c0-14.1,11.5-25.6,25.6-25.6c14.1,0,25.6,11.5,25.6,25.6
		V230.4z"/>
</g>
</svg>
