<?xml version="1.0" encoding="utf-8"?>
<!-- Generator: Adobe Illustrator 19.0.0, SVG Export Plug-In . SVG Version: 6.00 Build 0)  -->
<svg version="1.1" id="Layer_1" xmlns="http://www.w3.org/2000/svg" xmlns:xlink="http://www.w3.org/1999/xlink" x="0px" y="0px"
	 viewBox="0 0 512 512" style="enable-background:new 0 0 512 512;" xml:space="preserve">
<g id="XMLID_2_">
	<path id="XMLID_7_" d="M418.7,244.3v23.3c0,3.7-0.9,6.5-3.7,8.4c-2.8,1.9-4.7,3.7-8.4,3.7H278.8v128.7c0,3.7-0.9,6.5-3.7,8.4
		c-2.8,1.9-4.7,3.7-8.4,3.7h-23.3c-3.7,0-6.5-0.9-8.4-3.7c-1.9-2.8-3.7-4.7-3.7-8.4V278.8H104.5c-3.7,0-6.5-0.9-8.4-3.7
		s-3.7-4.7-3.7-8.4v-23.3c0-3.7,0.9-6.5,3.7-8.4s4.7-3.7,8.4-3.7h128.7V104.5c0-3.7,0.9-6.5,3.7-8.4c2.8-1.9,4.7-3.7,8.4-3.7h23.3
		c3.7,0,6.5,0.9,8.4,3.7c1.9,2.8,3.7,4.7,3.7,8.4v128.7h128.7c3.7,0,6.5,0.9,8.4,3.7C419.7,239.7,418.7,240.6,418.7,244.3z
		 M465.4,407.5V104.5c0-15.9-5.6-29.8-16.8-41c-11.2-11.2-25.2-16.8-41-16.8H104.5c-15.9,0-29.8,5.6-41,16.8
		c-11.2,11.2-16.8,25.2-16.8,41v303.1c0,15.9,5.6,29.8,16.8,41c11.2,11.2,25.2,16.8,41,16.8h303.1c15.9,0,29.8-5.6,41-16.8
		C459.8,437.4,465.4,423.4,465.4,407.5z M512,104.5v303.1c0,28.9-10.3,53.2-30.8,73.7c-20.5,20.5-45.7,30.8-73.7,30.8H104.5
		c-28.9,0-53.2-10.3-73.7-30.8C10.3,460.7,0,435.5,0,407.5V104.5c0-28.9,10.3-53.2,30.8-73.7S76.5,0,104.5,0h303.1
		c28.9,0,53.2,10.3,73.7,30.8C501.7,51.3,512,75.5,512,104.5z"/>
</g>
</svg>
