<?xml version="1.0" encoding="utf-8"?>
<!-- Generator: Adobe Illustrator 24.1.1, SVG Export Plug-In . SVG Version: 6.00 Build 0)  -->
<svg version="1.1" id="Layer_1" xmlns="http://www.w3.org/2000/svg" xmlns:xlink="http://www.w3.org/1999/xlink" x="0px" y="0px"
	 viewBox="0 0 512 512" style="enable-background:new 0 0 512 512;" xml:space="preserve">
<g>
	<path d="M27,27L2.1,37.4l190.8,458c4.3,10.4,14.6,17,25.8,16.6c11.2-0.4,21-7.6,24.6-18.3l63.5-186.9l186.9-63.5
		c10.6-3.6,17.9-13.4,18.3-24.6c0.4-11.2-6.2-21.5-16.6-25.8L37.4,2.1C27.3-2.1,15.6,0.2,7.9,7.9s-10,19.4-5.8,29.5L27,27L16.6,51.9
		l392.1,163.3L276.9,260c-7.9,2.7-14.2,8.9-16.9,16.9l-44.8,131.8L51.9,16.6L27,27L16.6,51.9L27,27z"/>
	<path d="M277.8,316l161.9,161.9c10.5,10.5,27.6,10.5,38.2,0c10.5-10.5,10.5-27.6,0-38.2L316,277.8c-10.5-10.5-27.6-10.5-38.2,0
		S267.3,305.4,277.8,316"/>
</g>
</svg>
