<?xml version="1.0" encoding="utf-8"?>
<!-- Generator: Adobe Illustrator 21.0.0, SVG Export Plug-In . SVG Version: 6.00 Build 0)  -->
<svg version="1.1" id="Layer_1" xmlns="http://www.w3.org/2000/svg" xmlns:xlink="http://www.w3.org/1999/xlink" x="0px" y="0px"
	 viewBox="0 0 512 512" style="enable-background:new 0 0 512 512;" xml:space="preserve">
<g>
	<path d="M233.2,95.9c8.4-1,16.7-1.5,25-1.6v41.2c0,4.2,4.8,6.5,8.1,3.9l82.7-65.2c2.6-2.1,2.6-5.9,0-7.9L266.5,1.1
		c-3.3-2.6-8.1-0.3-8.1,3.9l-0.1,41.3c-76.5,0.3-152.2,34.5-203,99.5C10.3,203.4-6.6,274,2.8,341h48.3c-0.6-3.4-1.1-6.9-1.5-10.4
		c-3.3-27.2-1.4-54.3,5.7-80.5c7.4-27.2,20-52.3,37.5-74.7c17.6-22.4,38.9-40.8,63.5-54.4C180.2,107.6,206,99.2,233.2,95.9z"/>
	<path d="M491,203.5H150.3c-11.4,0-20.7,9.2-20.7,20.7v267.2c0,11.4,9.2,20.7,20.7,20.7H491c11.4,0,20.7-9.2,20.7-20.7V224.2
		C511.7,212.8,502.5,203.5,491,203.5z M462.6,463h-284V252.6h284V463z"/>
</g>
</svg>
