<?xml version="1.0" encoding="utf-8"?>
<!-- Generator: Adobe Illustrator 21.0.0, SVG Export Plug-In . SVG Version: 6.00 Build 0)  -->
<svg version="1.1" id="Layer_1" xmlns="http://www.w3.org/2000/svg" xmlns:xlink="http://www.w3.org/1999/xlink" x="0px" y="0px"
	 viewBox="0 0 512 512" style="enable-background:new 0 0 512 512;" xml:space="preserve">
<g>
	<path d="M361.7,203.6H21c-11.4,0-20.6,9.2-20.6,20.6v267.1C0.4,502.8,9.6,512,21,512h340.7c11.4,0,20.6-9.2,20.6-20.6V224.2
		C382.4,212.8,373.1,203.6,361.7,203.6z M333.3,463H49.4V252.6h283.9V463z"/>
	<path d="M456.8,145.8c-50.8-65-126.5-99.1-203-99.5L253.6,5c0-4.2-4.9-6.5-8.1-3.9l-82.6,65.2c-2.6,2-2.5,5.9,0,7.9l82.7,65.2
		c3.3,2.6,8.2,0.3,8.1-3.9V94.3c8.3,0.1,16.7,0.6,25,1.6c27.2,3.4,53,11.7,76.8,25c24.6,13.7,45.9,32.1,63.5,54.4
		c17.5,22.4,30.1,47.6,37.5,74.7c7.1,26.3,9,53.4,5.7,80.5c-0.5,3.5-0.9,7-1.5,10.4H509C518.6,274,501.7,203.4,456.8,145.8z"/>
</g>
</svg>
