<svg id="Layer_1" data-name="Layer 1" xmlns="http://www.w3.org/2000/svg" viewBox="0 0 509 362"><title>shape-oval</title><path d="M256.5,437.89c-66.64,0-129.55-18-177.14-50.67-23.85-16.37-42.68-35.61-56-57.17C9.2,307,2,282.39,2,256.89s7.2-50.11,21.4-73.16c13.28-21.56,32.11-40.8,56-57.17C127,93.88,189.86,75.89,256.5,75.89s129.55,18,177.14,50.67c23.85,16.37,42.68,35.61,56,57.17,14.2,23.05,21.4,47.67,21.4,73.16s-7.2,50.11-21.4,73.16c-13.28,21.56-32.11,40.8-56,57.17C386.05,419.9,323.14,437.89,256.5,437.89Zm0-322c-58.64,0-113.5,15.5-154.5,43.64-38.69,26.57-60,61.14-60,97.36s21.31,70.79,60,97.36c41,28.14,95.86,43.64,154.5,43.64S370,382.39,411,354.25c38.69-26.57,60-61.15,60-97.36s-21.31-70.79-60-97.36C370,131.39,315.14,115.89,256.5,115.89Z" transform="translate(-2 -75.89)"/></svg>