<svg id="Layer_1" data-name="Layer 1" xmlns="http://www.w3.org/2000/svg" viewBox="0 0 19.87 19.83"><title>shape-rect-full</title><path d="M17.58,19.91H2.48A2.39,2.39,0,0,1,.1,17.52V2.46A2.39,2.39,0,0,1,2.48.08h15.1A2.39,2.39,0,0,1,20,2.46V17.52A2.39,2.39,0,0,1,17.58,19.91ZM2.48,2.08a.38.38,0,0,0-.38.38V17.52a.39.39,0,0,0,.38.39h15.1a.4.4,0,0,0,.39-.39V2.46a.39.39,0,0,0-.39-.38Z" transform="translate(-0.1 -0.08)"/><path d="M3,7.88a.17.17,0,0,1,0-.1.2.2,0,0,1,.08,0H5.84a.13.13,0,0,1,.1,0,.13.13,0,0,1,0,.1V8.6a.21.21,0,0,1,0,.1.12.12,0,0,1-.1,0H4.08v.9h1.3a.12.12,0,0,1,.09,0,.11.11,0,0,1,0,.1v.69a.17.17,0,0,1,0,.1.12.12,0,0,1-.09,0H4.08v1.33a.12.12,0,0,1-.14.13H3.06C3,12.05,3,12,3,11.93Z" transform="translate(-0.1 -0.08)"/><path d="M7.8,10.34a1,1,0,0,0,.06.36A.72.72,0,0,0,8,11a.5.5,0,0,0,.22.13.86.86,0,0,0,.27.05.87.87,0,0,0,.28-.05A.86.86,0,0,0,9,10.93a.72.72,0,0,0,.16-.25,1.21,1.21,0,0,0,.05-.34V7.87a.12.12,0,0,1,0-.09.15.15,0,0,1,.1,0h.84a.18.18,0,0,1,.11,0,.16.16,0,0,1,0,.09v2.45a2.32,2.32,0,0,1-.14.85,1.48,1.48,0,0,1-.41.56,1.46,1.46,0,0,1-.58.3,2.63,2.63,0,0,1-.7.09,2.74,2.74,0,0,1-.7-.09,1.55,1.55,0,0,1-.58-.31,1.46,1.46,0,0,1-.4-.56,2.1,2.1,0,0,1-.15-.84V7.87a.16.16,0,0,1,0-.09.12.12,0,0,1,.08,0h.87a.18.18,0,0,1,.09,0,.12.12,0,0,1,0,.09Z" transform="translate(-0.1 -0.08)"/><path d="M11.08,7.87a.13.13,0,0,1,0-.09.1.1,0,0,1,.09,0h.86a.11.11,0,0,1,.09,0,.13.13,0,0,1,.05.09V11H13.8l.09,0a.13.13,0,0,1,0,.1v.76a.1.1,0,0,1,0,.09.11.11,0,0,1-.09.05H11.21a.12.12,0,0,1-.13-.13Z" transform="translate(-0.1 -0.08)"/><path d="M14.5,7.87a.14.14,0,0,1,.13-.13h.86a.12.12,0,0,1,.09,0,.1.1,0,0,1,0,.09V11h1.6a.16.16,0,0,1,.09,0,.17.17,0,0,1,0,.1v.76a.12.12,0,0,1,0,.09.11.11,0,0,1-.09.05H14.63a.12.12,0,0,1-.13-.13Z" transform="translate(-0.1 -0.08)"/></svg>