<?xml version="1.0" encoding="utf-8"?>
<!-- Generator: Adobe Illustrator 19.0.0, SVG Export Plug-In . SVG Version: 6.00 Build 0)  -->
<svg version="1.1" id="Layer_1" xmlns="http://www.w3.org/2000/svg" xmlns:xlink="http://www.w3.org/1999/xlink" x="0px" y="0px"
	 viewBox="0 0 512 512" style="enable-background:new 0 0 512 512;" xml:space="preserve">
<g id="XMLID_1_">
	<path id="XMLID_3_" d="M504.1,319.4h-7.9c0,24.4-9.5,46.5-26,62.2c-15.8,15.8-37.8,26-62.2,26H104c-24.4,0-46.5-9.5-62.2-26
		c-15.8-15.8-26-37.8-26-62.2V191c0-24.4,9.5-46.5,26-62.2c15.8-15.8,37.8-26,62.2-26h304c24.4,0,46.5,9.5,62.2,26
		c15.8,15.8,26,37.8,26,62.2v128.4H504.1h7.9V191.8c0-57.5-46.5-104-104-104H104c-57.5,0-104,46.5-104,104v128.4
		c0,57.5,46.5,104,104,104h304c57.5,0,104-46.5,104-104h-7.9V319.4z"/>
</g>
</svg>
